<?xml version="1.0" standalone="no"?><!DOCTYPE svg PUBLIC "-//W3C//DTD SVG 1.1//EN" "http://www.w3.org/Graphics/SVG/1.1/DTD/svg11.dtd"><svg t="1726556914049" class="icon" viewBox="0 0 1024 1024" version="1.1" xmlns="http://www.w3.org/2000/svg" p-id="4266" xmlns:xlink="http://www.w3.org/1999/xlink" width="200" height="200"><path d="M528.177423 0c31.186172 7.199434 73.57241 9.596401 108.759215 26.392236 85.565779 39.989271 130.348986 131.952651 121.554417 230.313633-0.801833 9.596401-0.801833 21.589771 4.000633 28.789204 27.987371 39.989271 22.391603 79.970011 1.603665 119.950751-16.795835 32.789837-35.186805 64.777842-51.180807 98.360982-39.187438 83.970644-104.758582 127.952018-195.92866 129.555683-91.170078 1.595135-159.13819-38.385605-200.722596-121.554417-15.994002-31.988004-35.186805-63.174176-51.98264-95.162181-23.986738-43.179541-24.788571-84.763947 4.793936-126.348353 6.397601-9.596401 4.793936-25.590404 4.000633-39.187438-9.604931-111.958016 51.97411-206.326894 159.13819-236.711233 27.185539-8.001266 56.776575-8.794569 95.964014-14.398867zM351.441565 335.080745c-11.191537-0.801833-27.194069-6.397601-35.186805-0.801833-15.994002 10.398234-8.001266 27.194069-0.801832 41.584406l2.396967 4.793936c18.39097 34.384972 35.988638 67.976642 55.181441 102.361614 10.398234 17.589137 19.192803 37.583773 33.591669 51.180807 75.969378 71.977275 203.119563 49.577142 251.903403-43.981374 19.192803-37.583773 39.187438-74.374243 56.776576-112.759848 4.793936-11.993369 4.000633-28.789204 0.801832-42.386238-0.801833-3.1988-21.589771-1.603665-34.384972-2.396968 2.396968-15.19217 5.595768-33.59167 8.794569-51.98264-3.1988-1.603665-5.595768-2.396968-8.794569-3.198801-93.567046-2.396968-176.735857-29.591037-246.307635-94.360348-5.595768-3.1988-11.993369-4.793936-18.39097-3.1988-47.180174 14.398867-78.374876 59.975376-73.57241 108.759215 2.396968 17.597668 5.595768 34.384972 7.992736 46.386872zM534.165577 760.418843c11.191537 28.789204 22.391603 54.857295 35.186805 86.051997 5.595768 13.597034 4.793936 23.193436-6.397601 34.384972-49.577142 51.180807-51.98264 52.784472-101.559782-1.595135-6.397601-6.397601-8.001266-22.391603-4.793935-31.186172 10.398234-30.384339 23.193436-59.182073 35.186805-88.76458-9.596401-9.596401-19.994635-18.39097-26.392237-28.789204-5.595768-8.794569-13.597034-23.193436-10.398234-31.186171 5.595768-14.398867 15.994002-27.194069 36.78194-26.392237 13.187588 0.673881 32.243909 0 47.794344 1.927811 19.192803 2.371377 23.884377 3.15615 33.455188 26.0425 3.522946 8.410713-5.851672 22.929002-11.737465 29.650748-1.961931 2.234895-27.125828 29.855471-27.125828 29.855471z" fill="#172C54" p-id="4267"></path><path d="M684.509198 881.683235c0-72.216119 45.550918-133.7781 109.492807-157.551584-56.725395-25.709825-115.813637-46.804848-119.140389-46.804849-7.037361-2.431088-14.56094-0.255904-17.213812 6.576734-2.652872 6.832638-0.02559 47.026632-3.599716 67.533075-17.674439 94.565071-50.592228 158.140164-128.523537 208.996826-5.621359 3.975043-19.286634 0.793303-26.511658-3.975042-91.153018-62.585597-147.963714-142.743271-145.430264-257.584473-0.238844-6.081986 1.407472-9.357558-0.699471-16.215785-2.098413-6.858228-10.304403-10.671198-18.032705-8.001267-2.576101 0-144.244575 50.668999-200.910258 90.6668-72.122287 48.007597-103.026965 109.339264-118.483569 154.6684C0.000022 967.999667 0.000022 1005.327536 0.000022 1007.997468c0 8.001266 7.728302 16.002532 18.024175 16.002532h745.149902c-47.256945-29.744579-78.664901-82.358449-78.664901-142.316765zM1022.59255 986.663601c-2.286076-16.548461-4.572152-35.203865-10.457945-52.230014-12.351635 37.39611-37.481411 68.966138-70.211537 89.566413H1007.127416c5.152201 0 12.880503-5.331334 15.456604-8.001266 2.584631-8.001266 0.00853-26.665201 0.00853-29.335133z" fill="#172C54" p-id="4268"></path><path d="M951.127083 881.683235c0-13.997951 8.786039-25.863368 21.095023-30.580532a122.711956 122.711956 0 0 0-13.409372-32.405981c-12.07014 5.373985-26.65667 3.18174-36.551626-6.730276-9.877896-9.877896-12.07014-24.498546-6.696156-36.543096a122.876588 122.876588 0 0 0-32.431571-13.409372c-4.751285 12.308984-16.616702 21.103553-30.580533 21.103553-13.997951 0-25.863368-8.786039-30.580532-21.103553a122.711956 122.711956 0 0 0-32.405981 13.409372c5.373985 12.07014 3.18174 26.65667-6.704686 36.543096-9.877896 9.877896-24.490016 12.07014-36.543096 6.730276a121.418788 121.418788 0 0 0-13.434962 32.405981c12.308984 4.751285 21.095023 16.616702 21.095023 30.580532 0 13.997951-8.786039 25.854838-21.095023 30.580533 2.891716 11.38773 7.412687 22.297772 13.409372 32.405981 12.07014-5.373985 26.65667-3.18174 36.543096 6.730276 9.877896 9.877896 12.07014 24.490016 6.704686 36.543096a122.994304 122.994304 0 0 0 32.431571 13.409372c4.751285-12.308984 16.616702-21.103553 30.580532-21.103553 13.997951 0 25.863368 8.786039 30.580533 21.103553 11.38773-2.891716 22.297772-7.412687 32.405981-13.409372-5.365455-12.07014-3.18174-26.65667 6.713216-36.543096 9.877896-9.877896 24.490016-12.07014 36.543096-6.730276a122.096081 122.096081 0 0 0 13.434962-32.405981c-12.317514-4.725695-21.103553-16.591112-21.103553-30.580533z m-98.565704 32.858079c-18.135066 0-32.858078-14.723012-32.858079-32.858079s14.714482-32.858078 32.858079-32.858078c18.135066 0 32.858078 14.714482 32.858078 32.858078-0.00853 18.135066-14.731542 32.858078-32.858078 32.858079z m0 0" fill="#172C54" p-id="4269"></path></svg>